 *********** ****    ****      ***      ******** *********** ****    *** **********
           *+*     +*+*+* *+*+*+   *+* *+*   *+*    *+*    *+*     *+*+*   *+* *+*        
           +*+     +*+ +*+*+ +*+  +*+   +*+  +*+           +*+     *+*+*+  +*+ +*+        
           +$+     +$+  +*+  +$+ +$++*++$++* *$*           +$+     +$+ +*+ +$+ +$++*++$  
           +$+     +$+       +$+ +$+     +$+ +$+   +$+$    +$+     +$+  +$+$+$ +$+        
           $+$     $+$       $+$ $+$     $+$ $+$    $+$    $+$     $+$   $+$+$ $+$        
       $$$$$$$$$$$ $$$       $$$ $$$     $$$  $$$$$$$$ $$$$$$$$$$$ $$$    $$$$ $$$$$$$$$$     
                                                



                           Another Fine Release Brought to you from - IMAGiNE                   
                                                 

********************************************************************************************************************                                
                                    Hereafter CAM XViD - IMAGiNE
********************************************************************************************************************

Ripper ...........:IMAGiNE                                       IMDB Rating.......:7.4/10                             
Video Codec.......:XVID                                          Release Date......:12/01/11
Audio Codec.......:MP3                                           Theatre Date......:22/10/11
Audio Bitrate.....:128                                           Runtime...........:2h 2mn
Subtitles.........:NIL                                           Language..........:ENGLISH
Resolution........:720 x 304                                     IMDb URL..........:http://www.imdb.com/title/tt1212419/


[color=yellow]DETAILS:[/color]

Video
ID                               : 0
Format                           : MPEG-4 Visual
Format profile                   : Advanced Simple@L5
Format settings, BVOP            : Yes
Format settings, QPel            : No
Format settings, GMC             : No warppoints
Format settings, Matrix          : Default (MPEG)
Muxing mode                      : Packed bitstream
Codec ID                         : XVID
Codec ID/Hint                    : XviD
Duration                         : 2h 2mn
Bit rate                         : 1 419 Kbps
Width                            : 720 pixels
Height                           : 304 pixels
Display aspect ratio             : 2.35:1
Frame rate                       : 23.976 fps
Color space                      : YUV
Chroma subsampling               : 4:2:0
Bit depth                        : 8 bits
Scan type                        : Progressive
Compression mode                 : Lossy
Bits/(Pixel*Frame)               : 0.270
Stream size                      : 1.22 GiB (91%)
Writing library                  : XviD 1.2.1 (UTC 2008-12-04)

Audio
ID                               : 1
Format                           : MPEG Audio
Format version                   : Version 1
Format profile                   : Layer 3
Mode                             : Joint stereo
Mode extension                   : MS Stereo
Codec ID                         : 55
Codec ID/Hint                    : MP3
Duration                         : 2h 2mn
Bit rate mode                    : Constant
Bit rate                         : 128 Kbps
Channel(s)                       : 2 channels
Sampling rate                    : 44.1 KHz
Compression mode                 : Lossy
Stream size                      : 112 MiB (8%)
Alignment                        : Split accross interleaves
Interleave, duration             : 42 ms (1.00 video frame)
Interleave, preload duration     : 500 ms




[color=yellow]SOURCES:[/color]

VIDEO: Hereafter... :) Cw thanks matey
AUDIO: Hereafter... :) Cw thanks matey

[color=yellow]NOTES:[/color]

IMAGiNE bringing you another release..........

Here we are with Hereafter..........:P
Now the video we did our normal things to it of white balance, gamma, sat, 
and rgb color adjustments as well as a slight sharpening filter. The audio 
is cam audio and not to bad imo. It was just a matter of syncing the audio 
and muxing it to the video.:P

